<svg width="162" height="162" viewBox="0 0 162 162" fill="none" xmlns="http://www.w3.org/2000/svg">
<g filter="url(#filter0_d_206_471)">
<path d="M98.7757 28.8749H47.2219C34.88 28.8749 24.875 38.8799 24.875 51.2218V102.776C24.875 115.117 34.88 125.122 47.2219 125.122H98.7757C111.118 125.122 121.123 115.117 121.123 102.776V51.2218C121.123 38.8799 111.118 28.8749 98.7757 28.8749Z" fill="url(#paint0_linear_206_471)"/>
</g>
<g opacity="0.15" filter="url(#filter1_f_206_471)">
<path d="M60.1095 38.3279C52.968 38.3279 47.2188 44.0772 47.2188 51.2187C47.2188 58.3601 52.968 64.1094 60.1095 64.1094C52.968 64.1094 47.2188 69.8586 47.2188 77.0001C47.2188 84.1415 52.968 89.8908 60.1095 89.8908C56.6906 89.8908 53.4118 91.2489 50.9944 93.6664C48.5769 96.0839 47.2188 99.3627 47.2188 102.782C47.2188 106.2 48.5769 109.479 50.9944 111.897C53.4118 114.314 56.6906 115.672 60.1095 115.672C63.5283 115.672 66.8071 114.314 69.2246 111.897C71.6421 109.479 73.0002 106.2 73.0002 102.782V64.1094H85.8909C93.0324 64.1094 98.7816 58.3601 98.7816 51.2187C98.7816 44.0772 93.0324 38.3279 85.8909 38.3279H60.1095ZM85.8909 64.1094C82.4721 64.1094 79.1933 65.4675 76.7758 67.885C74.3583 70.3025 73.0002 73.5813 73.0002 77.0001C73.0002 80.4189 74.3583 83.6977 76.7758 86.1152C79.1933 88.5327 82.4721 89.8908 85.8909 89.8908C89.3097 89.8908 92.5885 88.5327 95.006 86.1152C97.4235 83.6977 98.7816 80.4189 98.7816 77.0001C98.7816 73.5813 97.4235 70.3025 95.006 67.885C92.5885 65.4675 89.3097 64.1094 85.8909 64.1094Z" fill="black"/>
</g>
<path d="M60.1113 89.8923C56.6925 89.8923 53.4138 91.2504 50.9964 93.6678C48.579 96.0853 47.2209 99.364 47.2209 102.783C47.2209 106.201 48.579 109.48 50.9964 111.898C53.4138 114.315 56.6925 115.673 60.1113 115.673C63.53 115.673 66.8087 114.315 69.2262 111.898C71.6436 109.48 73.0017 106.201 73.0017 102.783V89.8923H60.1113Z" fill="url(#paint1_linear_206_471)"/>
<path d="M60.1113 64.1096H73.0017V89.8911H60.1113C52.97 89.8911 47.2209 84.1418 47.2209 77.0007C47.2209 69.8594 52.9701 64.1103 60.1113 64.1103V64.1096Z" fill="url(#paint2_linear_206_471)"/>
<path d="M85.8921 89.8878C93.0113 89.8878 98.7825 84.1166 98.7825 76.9974C98.7825 69.8782 93.0113 64.107 85.8921 64.107C78.7729 64.107 73.0017 69.8782 73.0017 76.9974C73.0017 84.1166 78.7729 89.8878 85.8921 89.8878Z" fill="url(#paint3_linear_206_471)"/>
<path d="M60.1104 38.3282C52.9692 38.3282 47.22 44.0774 47.22 51.2186C47.22 58.3598 52.9692 64.1089 60.1104 64.1089H73.0008V38.3275L60.1104 38.3282Z" fill="url(#paint4_linear_206_471)"/>
<path d="M73.0017 38.3281H85.8921C93.0334 38.3281 98.7825 44.0773 98.7825 51.2185C98.7825 58.3597 93.0333 64.1088 85.8921 64.1088H73.0017V38.3281Z" fill="url(#paint5_linear_206_471)"/>
<defs>
<filter id="filter0_d_206_471" x="0.875" y="0.874878" width="160.248" height="160.248" filterUnits="userSpaceOnUse" color-interpolation-filters="sRGB">
<feFlood flood-opacity="0" result="BackgroundImageFix"/>
<feColorMatrix in="SourceAlpha" type="matrix" values="0 0 0 0 0 0 0 0 0 0 0 0 0 0 0 0 0 0 127 0" result="hardAlpha"/>
<feOffset dx="8" dy="4"/>
<feGaussianBlur stdDeviation="16"/>
<feComposite in2="hardAlpha" operator="out"/>
<feColorMatrix type="matrix" values="0 0 0 0 0 0 0 0 0 0 0 0 0 0 0 0 0 0 0.25 0"/>
<feBlend mode="normal" in2="BackgroundImageFix" result="effect1_dropShadow_206_471"/>
<feBlend mode="normal" in="SourceGraphic" in2="effect1_dropShadow_206_471" result="shape"/>
</filter>
<filter id="filter1_f_206_471" x="45.3437" y="36.4529" width="55.3129" height="81.0943" filterUnits="userSpaceOnUse" color-interpolation-filters="sRGB">
<feFlood flood-opacity="0" result="BackgroundImageFix"/>
<feBlend mode="normal" in="SourceGraphic" in2="BackgroundImageFix" result="shape"/>
<feGaussianBlur stdDeviation="0.937507" result="effect1_foregroundBlur_206_471"/>
</filter>
<linearGradient id="paint0_linear_206_471" x1="69.561" y1="120.02" x2="69.561" y2="34.0847" gradientUnits="userSpaceOnUse">
<stop stop-color="#263540"/>
<stop offset="1" stop-color="#435C70"/>
</linearGradient>
<linearGradient id="paint1_linear_206_471" x1="60.0086" y1="117.904" x2="60.0086" y2="86.6183" gradientUnits="userSpaceOnUse">
<stop stop-color="#06935C"/>
<stop offset="1" stop-color="#13F59D"/>
</linearGradient>
<linearGradient id="paint2_linear_206_471" x1="62.7851" y1="96.9667" x2="62.7851" y2="57.9974" gradientUnits="userSpaceOnUse">
<stop stop-color="#751FE0"/>
<stop offset="1" stop-color="#A776E5"/>
</linearGradient>
<linearGradient id="paint3_linear_206_471" x1="86.0987" y1="94.1993" x2="86.0987" y2="60.6803" gradientUnits="userSpaceOnUse">
<stop stop-color="#0183B7"/>
<stop offset="1" stop-color="#53CDFE"/>
</linearGradient>
<linearGradient id="paint4_linear_206_471" x1="68.5607" y1="77.3807" x2="68.5607" y2="30.46" gradientUnits="userSpaceOnUse">
<stop stop-color="#F5400A"/>
<stop offset="1" stop-color="#F68565"/>
</linearGradient>
<linearGradient id="paint5_linear_206_471" x1="82.3491" y1="70.1659" x2="82.3491" y2="35.1683" gradientUnits="userSpaceOnUse">
<stop stop-color="#FF4833"/>
<stop offset="1" stop-color="#FF998D"/>
</linearGradient>
</defs>
</svg>
