<svg width="946" height="484" viewBox="0 0 946 484" fill="none" xmlns="http://www.w3.org/2000/svg">
<path d="M0.371094 0H921.371C934.626 0 945.371 10.7452 945.371 24V460C945.371 473.255 934.626 484 921.371 484H0.371094V0Z" fill="#F7EBDA"/>
<g style="mix-blend-mode:overlay">
<path fill-rule="evenodd" clip-rule="evenodd" d="M498.833 32.7805C498.226 40.3022 494.932 47.2979 489.677 52.2288C484.422 57.1595 477.635 59.6214 470.809 59.0729C463.984 58.5243 457.679 55.0102 453.282 49.3037C448.885 43.5971 446.756 36.1655 447.363 28.6438C447.363 28.6438 461.568 36.0297 473.098 30.7121C484.628 25.3946 498.833 32.7805 498.833 32.7805ZM505.886 52.7558C504.262 55.658 502.372 58.2598 500.303 60.4165C499.034 61.4547 497.959 62.4374 496.962 63.3489C491.735 68.1268 488.651 70.9467 470.932 69.5227C452.445 68.0369 450.296 65.3462 445.063 58.7947C444.324 57.8691 443.523 56.8665 442.606 55.7794C435.197 46.9969 435.445 38.7739 436.277 28.4576L443.63 29.0486C442.444 43.7432 448.196 51.3106 448.196 51.3106C448.196 51.3106 453.108 61.1349 471.49 62.6122C489.872 64.0896 495.183 55.0869 495.183 55.0869C495.183 55.0869 502.34 45.0771 503.317 32.9756L511.024 33.5951C511.999 33.3778 513.007 33.2765 514.023 33.2978C516.586 33.3515 519.07 34.1814 521.106 35.6642C523.142 37.1471 524.622 39.204 525.326 41.5294C526.03 43.8548 525.921 46.3248 525.014 48.5727C524.108 50.8206 522.453 52.7266 520.294 54.0076C518.136 55.2886 515.589 55.8765 513.033 55.6839C510.477 55.4914 508.047 54.5284 506.104 52.9383C506.03 52.8782 505.958 52.8174 505.886 52.7558ZM510.765 39.8963C511.712 39.3363 512.817 39.0486 513.945 39.0722C515.188 39.0982 516.392 39.5006 517.379 40.2196C518.366 40.9386 519.084 41.9359 519.426 43.0634C519.767 44.191 519.714 45.3886 519.274 46.4785C518.835 47.5685 518.032 48.4926 516.986 49.1137C515.939 49.735 514.705 50.0199 513.465 49.9266C512.225 49.8332 511.047 49.3663 510.105 48.5953C509.499 48.0993 509.012 47.4946 508.669 46.8218C509.529 44.596 510.237 42.2717 510.765 39.8963ZM436.916 72.0088L504.03 77.4028C505.294 77.5043 506.224 78.7477 506.109 80.1798C505.993 81.612 504.875 82.6907 503.612 82.5891L436.497 77.1951C435.234 77.0935 434.303 75.8502 434.419 74.418C434.534 72.9859 435.652 71.9072 436.916 72.0088ZM876.333 23.5857C874.306 28.25 870.682 31.9911 866.258 33.9862C861.834 35.9811 856.973 36.0665 852.743 34.2236C848.514 32.3806 845.263 28.7602 843.705 24.1589C842.148 19.5576 842.411 14.3522 844.438 9.68792C844.438 9.68792 851.879 17.5059 860.385 16.6368C868.892 15.7678 876.333 23.5857 876.333 23.5857ZM876.471 37.8682C874.803 39.3638 873.032 40.6098 871.243 41.5326C870.208 41.917 869.309 42.3085 868.475 42.6717L868.475 42.6718C864.103 44.5756 861.522 45.6993 850.543 40.915C839.087 35.9232 838.304 33.737 836.398 28.4139L836.398 28.4139L836.398 28.4137C836.129 27.6618 835.837 26.8472 835.49 25.9533C832.684 18.7313 834.635 13.5413 837.415 7.14404L841.971 9.12945C838.012 18.2417 840.026 24.3261 840.026 24.3261C840.026 24.3261 841.014 31.6662 852.405 36.6297C863.796 41.5932 869.143 37.0134 869.143 37.0134C869.143 37.0134 875.886 32.1954 879.147 24.6911L883.923 26.7722C884.592 26.847 885.256 27.0028 885.899 27.2388C887.52 27.8336 888.922 28.9062 889.896 30.2973C890.87 31.6885 891.365 33.324 891.306 34.9611C891.248 36.5982 890.64 38.1496 889.572 39.3849C888.504 40.6203 887.034 41.4737 885.379 41.8185C883.724 42.1633 881.974 41.9812 880.387 41.2992C878.8 40.6171 877.461 39.4713 876.57 38.0322C876.536 37.9779 876.503 37.9232 876.471 37.8682ZM882.384 30.7343C883.11 30.5843 883.877 30.6425 884.59 30.9044C885.376 31.1928 886.056 31.7128 886.528 32.3874C887 33.0619 887.24 33.8549 887.212 34.6487C887.184 35.4425 886.889 36.1947 886.371 36.7937C885.853 37.3926 885.14 37.8064 884.338 37.9736C883.536 38.1409 882.687 38.0525 881.917 37.7218C881.148 37.3911 880.499 36.8356 880.067 36.1378C879.789 35.6889 879.61 35.1965 879.538 34.6924C880.572 33.4611 881.53 32.1337 882.384 30.7343ZM828.326 35.059L869.914 53.1811C870.697 53.5223 871.019 54.5188 870.633 55.4069C870.247 56.295 869.3 56.7384 868.517 56.3972L826.928 38.2751C826.145 37.9339 825.823 36.9373 826.209 36.0492C826.595 35.1611 827.543 34.7178 828.326 35.059ZM675.325 199.822C676.281 203.385 675.914 207.145 674.305 210.275C672.695 213.406 669.975 215.65 666.742 216.515C663.509 217.379 660.029 216.793 657.066 214.885C654.104 212.977 651.902 209.904 650.946 206.341C650.946 206.341 658.7 207.417 663.135 203.082C667.57 198.746 675.325 199.822 675.325 199.822ZM681.855 207.865C681.584 209.467 681.141 210.975 680.543 212.306C680.129 212.992 679.795 213.62 679.486 214.203C677.865 217.259 676.908 219.062 668.516 221.306C659.759 223.648 658.328 222.76 654.841 220.6C654.349 220.295 653.815 219.965 653.214 219.614C648.36 216.783 647.123 212.956 645.811 208.07L649.294 207.138C651.162 214.099 655.054 216.642 655.054 216.642C655.054 216.642 658.93 220.361 667.637 218.033C676.343 215.705 677.309 210.69 677.309 210.69C677.309 210.69 678.96 204.91 677.421 199.178L681.072 198.202C681.485 197.942 681.932 197.731 682.404 197.574C683.593 197.179 684.873 197.155 686.054 197.505C687.235 197.854 688.254 198.559 688.961 199.514C689.667 200.47 690.023 201.625 689.975 202.808C689.927 203.992 689.478 205.14 688.694 206.083C687.911 207.027 686.835 207.714 685.627 208.044C684.418 208.373 683.141 208.328 681.985 207.914C681.941 207.898 681.898 207.882 681.855 207.865ZM681.988 201.146C682.332 200.733 682.794 200.419 683.317 200.246C683.893 200.054 684.514 200.042 685.086 200.212C685.659 200.381 686.154 200.723 686.496 201.186C686.839 201.65 687.011 202.21 686.988 202.784C686.964 203.357 686.747 203.914 686.367 204.372C685.987 204.829 685.465 205.162 684.879 205.322C684.293 205.482 683.674 205.46 683.114 205.259C682.753 205.13 682.429 204.931 682.161 204.677C682.191 203.512 682.135 202.326 681.988 201.146ZM653.261 228.018L685.05 219.517C685.649 219.357 686.281 219.778 686.464 220.456C686.646 221.134 686.308 221.814 685.71 221.974L653.921 230.475C653.322 230.635 652.69 230.214 652.508 229.536C652.325 228.858 652.663 228.178 653.261 228.018ZM262.884 226.776C264.625 233.26 263.957 240.103 261.028 245.8C258.099 251.498 253.148 255.582 247.264 257.155C241.381 258.729 235.047 257.662 229.655 254.19C224.264 250.717 220.257 245.124 218.517 238.64C218.517 238.64 232.629 240.598 240.7 232.708C248.772 224.818 262.884 226.776 262.884 226.776ZM274.768 241.414C274.275 244.33 273.47 247.073 272.381 249.496C271.628 250.744 271.021 251.888 270.458 252.949L270.458 252.949C267.507 258.509 265.766 261.791 250.492 265.876C234.556 270.137 231.951 268.522 225.606 264.591L225.606 264.591C224.71 264.036 223.739 263.434 222.645 262.796C213.81 257.644 211.559 250.679 209.171 241.786L215.51 240.091C218.911 252.758 225.993 257.386 225.993 257.386C225.993 257.386 233.047 264.156 248.893 259.919C264.739 255.681 266.496 246.555 266.496 246.555C266.496 246.555 269.501 236.036 266.7 225.604L273.344 223.827C274.096 223.355 274.91 222.97 275.768 222.685C277.932 221.967 280.261 221.922 282.411 222.558C284.561 223.194 286.416 224.477 287.701 226.216C288.987 227.955 289.634 230.057 289.547 232.211C289.459 234.365 288.642 236.455 287.217 238.171C285.791 239.888 283.833 241.139 281.633 241.739C279.433 242.339 277.109 242.256 275.005 241.502C274.926 241.474 274.847 241.444 274.768 241.414ZM275.011 229.185C275.637 228.433 276.477 227.863 277.43 227.547C278.479 227.199 279.608 227.177 280.65 227.486C281.693 227.794 282.592 228.416 283.216 229.259C283.839 230.102 284.153 231.122 284.11 232.166C284.068 233.21 283.672 234.224 282.981 235.056C282.289 235.888 281.34 236.495 280.273 236.786C279.207 237.077 278.08 237.036 277.06 236.671C276.404 236.436 275.814 236.074 275.325 235.613C275.381 233.491 275.279 231.333 275.011 229.185ZM222.731 278.091L280.584 262.62C281.673 262.329 282.825 263.094 283.156 264.328C283.488 265.563 282.874 266.8 281.784 267.091L223.931 282.562C222.842 282.853 221.69 282.088 221.359 280.854C221.027 279.619 221.642 278.382 222.731 278.091ZM93.1083 410.951C92.3359 417.619 89.1915 423.736 84.3669 427.958C79.5422 432.179 73.4324 434.159 67.3817 433.461C61.331 432.763 55.8348 429.444 52.1024 424.236C48.37 419.027 46.7071 412.355 47.4794 405.687C47.4794 405.687 59.8792 412.69 70.2939 408.319C80.7085 403.947 93.1083 410.951 93.1083 410.951ZM98.7605 428.926C97.2266 431.456 95.4664 433.711 93.5601 435.564C92.3995 436.448 91.4134 437.289 90.4988 438.068L90.4988 438.068C85.7047 442.155 82.8752 444.567 67.1675 442.755C50.7786 440.864 48.9512 438.405 44.5019 432.42C43.8733 431.574 43.1923 430.658 42.4106 429.664C36.0957 421.628 36.5706 414.325 37.6299 405.179L44.1483 405.931C42.6394 418.958 47.5184 425.863 47.5184 425.863C47.5184 425.863 51.5811 434.748 67.8771 436.628C84.1731 438.508 89.173 430.668 89.173 430.668C89.173 430.668 95.8459 421.99 97.0885 411.262L103.921 412.05C104.795 411.887 105.694 411.828 106.597 411.879C108.873 412.005 111.055 412.82 112.82 414.201C114.584 415.582 115.836 417.456 116.39 419.545C116.944 421.634 116.771 423.826 115.895 425.797C115.02 427.767 113.489 429.411 111.531 430.483C109.572 431.555 107.29 431.999 105.024 431.749C102.757 431.499 100.626 430.568 98.9483 429.095C98.8849 429.039 98.8223 428.983 98.7605 428.926ZM103.496 417.644C104.355 417.176 105.346 416.954 106.349 417.01C107.452 417.071 108.51 417.466 109.366 418.136C110.221 418.805 110.828 419.714 111.097 420.727C111.366 421.74 111.281 422.803 110.857 423.758C110.432 424.714 109.69 425.51 108.741 426.03C107.791 426.55 106.685 426.766 105.586 426.644C104.487 426.523 103.454 426.072 102.64 425.357C102.117 424.898 101.702 424.345 101.418 423.736C102.251 421.784 102.953 419.74 103.496 417.644ZM36.8499 443.916L96.3477 450.78C97.4679 450.909 98.2568 452.043 98.1098 453.313C97.9627 454.583 96.9354 455.507 95.8151 455.378L36.3173 448.514C35.1971 448.385 34.4082 447.251 34.5553 445.981C34.7023 444.711 35.7297 443.787 36.8499 443.916ZM927.59 250.04C925.256 254.731 921.326 258.391 916.665 260.217C912.005 262.042 906.995 261.882 902.738 259.772C898.482 257.662 895.327 253.775 893.967 248.966C892.608 244.157 893.156 238.82 895.491 234.129C895.491 234.129 902.737 242.544 911.541 242.084C920.345 241.625 927.59 250.04 927.59 250.04ZM926.975 264.727C925.178 266.18 923.288 267.37 921.398 268.227C920.311 268.57 919.365 268.926 918.487 269.257H918.487C913.884 270.991 911.168 272.015 900.118 266.538C888.588 260.823 887.898 258.536 886.219 252.967V252.967L886.219 252.967C885.981 252.181 885.724 251.328 885.414 250.392C882.909 242.826 885.193 237.59 888.395 231.156L892.98 233.429C888.42 242.594 890.171 248.95 890.171 248.95C890.171 248.95 890.798 256.546 902.262 262.228C913.727 267.91 919.475 263.475 919.475 263.475C919.475 263.475 926.674 258.866 930.43 251.319L935.236 253.702C935.921 253.813 936.596 254.007 937.246 254.282C938.883 254.976 940.27 256.15 941.199 257.629C942.128 259.109 942.55 260.815 942.403 262.495C942.256 264.175 941.547 265.738 940.382 266.954C939.217 268.169 937.658 268.971 935.936 269.242C934.214 269.512 932.422 269.235 930.824 268.453C929.226 267.671 927.909 266.425 927.068 264.901C927.036 264.843 927.005 264.785 926.975 264.727ZM933.442 257.696C934.196 257.579 934.983 257.678 935.704 257.983C936.498 258.32 937.17 258.889 937.62 259.606C938.071 260.323 938.276 261.151 938.204 261.965C938.133 262.78 937.789 263.538 937.224 264.127C936.66 264.716 935.904 265.105 935.069 265.236C934.234 265.367 933.365 265.233 932.59 264.854C931.815 264.475 931.177 263.871 930.769 263.132C930.506 262.656 930.348 262.141 930.301 261.619C931.43 260.406 932.487 259.091 933.442 257.696ZM877.554 259.386L919.411 280.133C920.199 280.523 920.477 281.564 920.033 282.457C919.588 283.351 918.589 283.758 917.801 283.367L875.944 262.621C875.156 262.23 874.878 261.189 875.322 260.296C875.767 259.403 876.766 258.996 877.554 259.386ZM693.234 419.219C691.851 426.781 687.799 433.537 681.969 438C676.138 442.463 669.008 444.268 662.146 443.018C655.285 441.768 649.253 437.565 645.38 431.334C641.506 425.103 640.106 417.354 641.49 409.792C641.49 409.792 655.133 418.723 667.362 414.506C679.591 410.289 693.234 419.219 693.234 419.219ZM698.343 440.182C696.401 442.959 694.22 445.404 691.902 447.379C690.51 448.302 689.32 449.189 688.216 450.011L688.216 450.011C682.431 454.322 679.017 456.867 661.204 453.622C642.619 450.236 640.715 447.29 636.08 440.118L636.08 440.117C635.425 439.104 634.716 438.007 633.897 436.811C627.285 427.157 628.376 418.847 630.273 408.476L637.665 409.823C634.962 424.596 640.019 432.851 640.019 432.851C640.019 432.851 643.995 443.308 662.475 446.674C680.955 450.041 687.257 441.456 687.257 441.456C687.257 441.456 695.534 432.039 697.759 419.873L705.507 421.285C706.518 421.164 707.549 421.163 708.578 421.288C711.169 421.603 713.602 422.697 715.514 424.407C717.427 426.117 718.717 428.352 719.193 430.781C719.669 433.209 719.306 435.702 718.158 437.888C717.01 440.074 715.137 441.837 712.819 442.916C710.5 443.995 707.859 444.332 705.288 443.877C702.717 443.422 700.352 442.199 698.545 440.389C698.477 440.321 698.41 440.252 698.343 440.182ZM704.602 427.645C705.619 427.174 706.768 426.994 707.909 427.133C709.165 427.286 710.345 427.816 711.272 428.645C712.199 429.474 712.825 430.558 713.056 431.736C713.287 432.913 713.111 434.122 712.554 435.182C711.997 436.242 711.089 437.097 709.965 437.62C708.841 438.143 707.561 438.306 706.314 438.086C705.067 437.865 703.92 437.272 703.044 436.395C702.481 435.83 702.048 435.168 701.769 434.451C702.869 432.282 703.824 429.999 704.602 427.645ZM626.473 452.682L693.945 464.974C695.216 465.206 696.032 466.561 695.769 468C695.505 469.44 694.262 470.42 692.992 470.188L625.519 457.896C624.249 457.665 623.433 456.31 623.696 454.87C623.959 453.43 625.203 452.451 626.473 452.682ZM63.82 72.8363C63.0477 79.5044 59.9033 85.6221 55.0786 89.8437C50.254 94.0651 44.1441 96.0446 38.0934 95.3466C32.0427 94.6486 26.5465 91.3302 22.8141 86.1216C19.0818 80.9128 17.4188 74.2405 18.1912 67.5724C18.1912 67.5724 30.591 74.5763 41.0056 70.2043C51.4203 65.8324 63.82 72.8363 63.82 72.8363ZM69.4722 90.8119C67.9384 93.3419 66.1781 95.5966 64.2718 97.4502C63.1112 98.3339 62.1251 99.1744 61.2106 99.954L61.2105 99.954C56.4164 104.041 53.587 106.452 37.8793 104.64C21.4904 102.75 19.663 100.291 15.2136 94.3057C14.585 93.4601 13.9041 92.5441 13.1224 91.5494C6.80744 83.5133 7.28235 76.2107 8.34167 67.0652L14.8601 67.8172C13.3512 80.8442 18.2302 87.7489 18.2302 87.7489C18.2302 87.7489 22.2929 96.6341 38.5889 98.5141C54.8849 100.394 59.8847 92.5543 59.8847 92.5543C59.8847 92.5543 66.5576 83.8762 67.8002 73.148L74.6328 73.9362C75.5065 73.7732 76.4053 73.7141 77.3085 73.7644C79.5849 73.8911 81.7672 74.7054 83.5314 76.0865C85.2958 77.4675 86.5478 79.3417 87.1018 81.4307C87.6558 83.5197 87.4823 85.7122 86.6068 87.6826C85.7314 89.653 84.2008 91.2965 82.2424 92.3688C80.2839 93.4411 78.0019 93.8852 75.7353 93.6352C73.4687 93.3852 71.3381 92.4542 69.66 90.9808C69.5966 90.9251 69.534 90.8688 69.4722 90.8119ZM74.2078 79.5301C75.067 79.0614 76.0582 78.8397 77.0603 78.8955C78.1641 78.9569 79.2221 79.3517 80.0776 80.0214C80.933 80.691 81.5402 81.5997 81.8088 82.6126C82.0774 83.6255 81.9932 84.6885 81.5688 85.644C81.1442 86.5994 80.4021 87.3962 79.4526 87.9161C78.503 88.4361 77.3965 88.6514 76.2975 88.5302C75.1984 88.409 74.1654 87.9576 73.3518 87.2432C72.8283 86.7836 72.4136 86.2309 72.1294 85.6223C72.9632 83.6701 73.6647 81.6256 74.2078 79.5301ZM7.56164 105.802L67.0594 112.666C68.1797 112.795 68.9686 113.929 68.8215 115.199C68.6744 116.468 67.6471 117.393 66.5269 117.264L7.02908 110.4C5.90886 110.271 5.11996 109.136 5.26702 107.867C5.41409 106.597 6.44142 105.673 7.56164 105.802Z" fill="#2F2105"/>
</g>
</svg>
